<svg
  xmlns="http://www.w3.org/2000/svg"
  viewBox="0 0 720 560"
  role="img"
  aria-labelledby="titulo descripcion"
>
  <title id="titulo">Casa bioclimática sostenible</title>
  <desc id="descripcion">
    Ilustración de una casa bioclimática con adobe, paneles solares y jardín.
  </desc>
  <defs>
    <linearGradient id="cielo" x1="0%" x2="0%" y1="0%" y2="100%">
      <stop offset="0%" stop-color="#fbf7ef" />
      <stop offset="100%" stop-color="#eef7fb" />
    </linearGradient>
    <linearGradient id="suelo" x1="0%" x2="0%" y1="0%" y2="100%">
      <stop offset="0%" stop-color="#c9df99" />
      <stop offset="100%" stop-color="#a8c56f" />
    </linearGradient>
    <linearGradient id="muro-frontal" x1="0%" x2="0%" y1="0%" y2="100%">
      <stop offset="0%" stop-color="#d8b168" />
      <stop offset="100%" stop-color="#c5944d" />
    </linearGradient>
    <linearGradient id="muro-lateral" x1="0%" x2="0%" y1="0%" y2="100%">
      <stop offset="0%" stop-color="#c99954" />
      <stop offset="100%" stop-color="#aa7941" />
    </linearGradient>
    <linearGradient id="techo-paja" x1="0%" x2="0%" y1="0%" y2="100%">
      <stop offset="0%" stop-color="#f6d985" />
      <stop offset="100%" stop-color="#dfb35a" />
    </linearGradient>
    <linearGradient id="vidrio" x1="0%" x2="100%" y1="0%" y2="100%">
      <stop offset="0%" stop-color="#eff8ff" />
      <stop offset="100%" stop-color="#b9d7ef" />
    </linearGradient>
    <linearGradient id="panel" x1="0%" x2="100%" y1="0%" y2="100%">
      <stop offset="0%" stop-color="#8ec3e4" />
      <stop offset="100%" stop-color="#5f96b9" />
    </linearGradient>
    <filter id="sombra" x="-20%" y="-20%" width="140%" height="160%">
      <feDropShadow dx="0" dy="16" stdDeviation="14" flood-color="#6c5831" flood-opacity="0.2" />
    </filter>
  </defs>

  <ellipse cx="360" cy="520" rx="228" ry="24" fill="#c7b287" opacity="0.28" />

  <g filter="url(#sombra)">
    <ellipse cx="360" cy="458" rx="312" ry="72" fill="url(#cielo)" opacity="0.85" />
    <ellipse cx="360" cy="468" rx="320" ry="76" fill="url(#suelo)" />
  </g>

  <g opacity="0.9">
    <ellipse cx="166" cy="404" rx="92" ry="54" fill="#b7d77f" opacity="0.36" />
    <ellipse cx="570" cy="426" rx="106" ry="52" fill="#acd47b" opacity="0.34" />
  </g>

  <g>
    <rect x="440" y="270" width="18" height="132" rx="6" fill="#2f876f" />
    <rect x="210" y="288" width="18" height="126" rx="6" fill="#2f876f" />
  </g>

  <g transform="translate(86 300)">
    <ellipse cx="60" cy="136" rx="72" ry="24" fill="#8aac5a" opacity="0.22" />
    <path
      d="M62 34c-26 0-44 18-44 40 0 17 8 26 16 33-12 2-23 12-23 26 0 17 15 30 35 30h47c21 0 39-12 39-31 0-16-13-28-29-29 13-8 21-22 21-37 0-19-15-32-35-32-6-17-23-28-43-28-19 0-36 10-44 28Z"
      fill="#7fb76a"
      stroke="#335f41"
      stroke-width="2.6"
      stroke-linejoin="round"
    />
    <path
      d="M53 160V78m18 82V92m-37 68 12-32m19 20 18-30"
      stroke="#966438"
      stroke-linecap="round"
      stroke-width="7"
    />
    <g fill="#8fca74" opacity="0.85">
      <circle cx="36" cy="48" r="18" />
      <circle cx="72" cy="44" r="20" />
      <circle cx="92" cy="70" r="18" />
      <circle cx="36" cy="82" r="22" />
      <circle cx="80" cy="92" r="20" />
    </g>
  </g>

  <g transform="translate(522 250)">
    <path
      d="M56 18c-26 0-45 17-45 39 0 17 9 27 19 33-17 2-30 13-30 29 0 19 17 32 39 32h64c24 0 44-13 44-34 0-17-12-30-28-32 13-8 22-21 22-37 0-21-17-35-38-35-6-18-23-29-43-29-18 0-34 8-44 21Z"
      fill="#7aac63"
      stroke="#335f41"
      stroke-width="2.6"
      stroke-linejoin="round"
    />
    <path
      d="M56 150V88m22 62V100m-40 46 15-26m17 16 20-28"
      stroke="#99633a"
      stroke-linecap="round"
      stroke-width="6.6"
    />
    <g fill="#92cc76" opacity="0.9">
      <circle cx="38" cy="40" r="18" />
      <circle cx="76" cy="36" r="22" />
      <circle cx="104" cy="62" r="18" />
      <circle cx="24" cy="74" r="20" />
      <circle cx="86" cy="86" r="20" />
    </g>
  </g>

  <g stroke="#7a5327" stroke-width="2.8" stroke-linejoin="round">
    <polygon points="202,253 322,140 524,140 470,253" fill="url(#techo-paja)" />
    <polygon points="524,140 618,208 572,298 470,253" fill="#d0a55b" />
    <rect x="236" y="250" width="236" height="168" rx="8" fill="url(#muro-frontal)" />
    <polygon points="470,253 572,298 572,438 470,418" fill="url(#muro-lateral)" />
  </g>

  <g stroke="#8d632d" stroke-width="2">
    <path d="M204 252c16 8 32 8 48 0 18 8 36 8 54 0 18 8 36 8 54 0 18 8 36 8 54 0 17 9 35 9 56 0" fill="none" />
    <path d="M520 142c20 14 36 32 48 54" fill="none" />
    <path d="M548 164c11 12 21 24 28 38" fill="none" />
  </g>

  <g opacity="0.46" stroke="#9d733d" stroke-linecap="round">
    <path d="M264 278c20-10 40-10 60 0" />
    <path d="M254 320c28-10 58-10 86 0" />
    <path d="M250 354c38-10 74-10 112 0" />
    <path d="M482 316c22-8 46-8 66 0" />
    <path d="M484 356c24-10 48-10 72 0" />
  </g>

  <g>
    <polygon
      points="298,170 486,170 448,238 260,238"
      fill="url(#panel)"
      stroke="#2f5d50"
      stroke-width="4"
      stroke-linejoin="round"
    />
    <g stroke="#cbe5f5" stroke-width="2.2" opacity="0.94">
      <path d="M282 183h180" />
      <path d="M274 198h180" />
      <path d="M266 213h180" />
      <path d="M258 228h180" />
      <path d="M316 170l-24 68" />
      <path d="M356 170l-24 68" />
      <path d="M396 170l-24 68" />
      <path d="M436 170l-24 68" />
    </g>
  </g>

  <g stroke="#72522f" stroke-width="2.6">
    <rect x="262" y="306" width="46" height="58" rx="4" fill="url(#vidrio)" />
    <rect x="316" y="306" width="46" height="58" rx="4" fill="url(#vidrio)" />
    <rect x="378" y="298" width="90" height="114" rx="4" fill="url(#vidrio)" />
    <rect x="494" y="318" width="38" height="74" rx="4" fill="url(#vidrio)" />
    <path d="M285 307v58m54-58v58m138-66v114m-45-114v114m80-95v74" opacity="0.7" />
  </g>

  <g opacity="0.76" stroke="#ffffff" stroke-linecap="round" stroke-width="7">
    <path d="M274 320 291 309" />
    <path d="M328 320 345 309" />
    <path d="M404 320 426 304" />
    <path d="M446 354 462 340" />
    <path d="M504 332 518 320" />
  </g>

  <g stroke="#7d582b" stroke-width="2.4" stroke-linejoin="round">
    <path d="M230 414h252" fill="none" />
    <path d="M228 412 246 392h244l-8 20" fill="#d8b16a" />
    <path d="M378 298h88" fill="none" opacity="0.2" />
  </g>

  <g transform="translate(216 392)">
    <path
      d="M12 10h202l-18 28H0Z"
      fill="#c59254"
      stroke="#7d582b"
      stroke-linejoin="round"
      stroke-width="2.6"
    />
    <path d="M28 37 42 10m44 27 14-27m48 27 14-27m44 27 14-27" stroke="#7d582b" stroke-linecap="round" stroke-width="2.2" />
  </g>

  <g transform="translate(184 356)">
    <rect x="0" y="48" width="44" height="28" rx="4" fill="#c08945" stroke="#7a5227" stroke-width="2.4" />
    <path d="M6 48 14 34h24l6 14" fill="#d0a460" stroke="#7a5227" stroke-width="2.4" stroke-linejoin="round" />
    <g fill="#7db86c" stroke="#2f5d50" stroke-width="2">
      <path d="M18 34c2-10 10-16 18-16 0 10-6 18-18 18Z" />
      <path d="M24 34c2-10 10-16 18-16 0 10-6 18-18 18Z" transform="rotate(30 30 30)" />
      <path d="M16 36c-10 0-18-7-18-16 10 0 18 6 18 16Z" transform="translate(10 -6)" />
    </g>
  </g>

  <g transform="translate(246 412)">
    <g fill="#6da55a" stroke="#2f5d50" stroke-width="2.6">
      <path d="M24 48c0-20 12-36 28-44 2 18-4 36-14 46" />
      <path d="M54 50c0-16 10-28 22-34 1 14-3 28-10 36" />
      <path d="M116 52c0-16 9-28 21-34 1 14-3 28-10 36" />
      <path d="M150 48c0-20 12-36 28-44 2 18-4 36-14 46" />
    </g>
    <g fill="#8ac86f" stroke="#2f5d50" stroke-width="2.2">
      <ellipse cx="12" cy="58" rx="20" ry="14" />
      <ellipse cx="60" cy="60" rx="24" ry="16" />
      <ellipse cx="118" cy="60" rx="24" ry="16" />
      <ellipse cx="172" cy="58" rx="22" ry="15" />
    </g>
  </g>

  <g transform="translate(490 414)">
    <g fill="#76b164" stroke="#2f5d50" stroke-width="2.4">
      <ellipse cx="22" cy="24" rx="22" ry="18" />
      <ellipse cx="56" cy="18" rx="24" ry="18" />
      <ellipse cx="88" cy="26" rx="22" ry="16" />
      <ellipse cx="44" cy="40" rx="30" ry="18" />
    </g>
  </g>

  <g transform="translate(100 426)">
    <g fill="#6aa95b" stroke="#2f5d50" stroke-width="2.2">
      <ellipse cx="32" cy="20" rx="26" ry="18" />
      <ellipse cx="66" cy="18" rx="24" ry="16" />
      <ellipse cx="92" cy="26" rx="24" ry="16" />
      <ellipse cx="62" cy="38" rx="32" ry="18" />
    </g>
  </g>

  <g transform="translate(590 406)">
    <g fill="#9acd6f" stroke="#3d6a47" stroke-width="2.2">
      <ellipse cx="28" cy="24" rx="24" ry="16" />
      <ellipse cx="58" cy="20" rx="22" ry="16" />
      <ellipse cx="84" cy="28" rx="20" ry="14" />
      <ellipse cx="54" cy="42" rx="30" ry="16" />
    </g>
  </g>

  <g fill="none" stroke="#4c8fb5" stroke-linecap="round" stroke-width="6">
    <path d="M532 258c12 12 16 34 12 64" />
    <path d="M544 322c-4 26-14 45-30 58" />
    <path d="M514 380c-18 16-32 28-42 52" />
  </g>

  <g fill="#71b7de" opacity="0.85">
    <path d="M454 430c12-18 20-26 34-34-4 18-12 30-34 34Z" />
    <path d="M438 396c18-22 34-34 56-38-8 22-22 38-56 38Z" />
  </g>

  <g opacity="0.4" stroke="#2f5d50" stroke-linecap="round">
    <path d="M164 470c12 4 26 4 38 0" />
    <path d="M568 476c12 4 26 4 38 0" />
    <path d="M348 508c16 4 34 4 50 0" />
  </g>
</svg>
